# xmcd
#
# Track frame offsets: 
#        150
#        14099
#        27098
#        38340
#        47057
#        65806
#        81722
#        94083
#        113567
#        124723
#        134422
#        149431
#        168029
#        182417
#        197800
#        208112
#        222147
#        237124
#        251251
#        267291
#        283357
#        295068
#
# Disc length: 4108 seconds
#
# Revision: 1
# Processed by: cddbd v1.5.2PL0 Copyright (c) Steve Scherf et al.
# Submitted via: ExactAudioCopy v1.0b2
#
DISCID=47100a16
DTITLE=Eva Olmerova - Blues samotarky CD2
DYEAR=2004
DGENRE=
TTITLE0=Tvou lasku
TTITLE1=Prosim, volejte 2245
TTITLE2=Ja hledam stesti
TTITLE3=Bila mriz
TTITLE4=Georgia
TTITLE5=Zpivam dal
TTITLE6=Mas mit zpatecni
TTITLE7=Tezky vzdech
TTITLE8=Ja mam nastesti par pratel
TTITLE9=Den zacina krasne
TTITLE10=Posledni produkce
TTITLE11=Staci malo, nekdy pul
TTITLE12=Den je nas
TTITLE13=Sam jsi jenom pul
TTITLE14=Co te nema
TTITLE15=Nedelni chvilka volna
TTITLE16=Prozatim
TTITLE17=Bez, at se ti trochu styska
TTITLE18=Jak vis
TTITLE19=Krasne to mas vymyslene
TTITLE20=Cas, kdy clovek svlikne kuzi
TTITLE21=Ohen
EXTD=
EXTT0=
EXTT1=
EXTT2=
EXTT3=
EXTT4=
EXTT5=
EXTT6=
EXTT7=
EXTT8=
EXTT9=
EXTT10=
EXTT11=
EXTT12=
EXTT13=
EXTT14=
EXTT15=
EXTT16=
EXTT17=
EXTT18=
EXTT19=
EXTT20=
EXTT21=
PLAYORDER=
